<svg width="33" height="33" viewBox="0 0 33 33" fill="none" xmlns="http://www.w3.org/2000/svg">
<path d="M27.2797 0.315674C25.8606 0.315672 24.441 0.855657 23.361 1.93532C22.7596 2.53676 22.335 3.24661 22.0681 3.99823L0.488721 13.2898C0.397137 13.3291 0.319084 13.3944 0.264206 13.4776C0.209327 13.5608 0.180029 13.6583 0.179932 13.758C0.179932 16.7479 2.12627 18.7492 2.35839 18.9825C2.42314 21.7633 3.73678 23.5184 5.0578 24.4949C6.20593 25.3435 7.19426 25.6023 7.52015 25.6792C7.79354 26.281 9.91513 30.6219 14.1442 30.7693C14.3687 30.9924 16.3831 32.9527 19.3747 32.9527C19.4743 32.9526 19.5718 32.9233 19.655 32.8684C19.7382 32.8135 19.8035 32.7355 19.8428 32.6439L27.196 15.5669C27.1992 15.5593 27.2022 15.5517 27.205 15.544L29.1344 11.0635C29.886 10.7967 30.5961 10.3723 31.1973 9.7706C33.3567 7.61116 33.3568 4.09427 31.1973 1.93532C30.1176 0.855619 28.6987 0.315676 27.2797 0.315674ZM27.2797 1.3297C28.4355 1.32969 29.5913 1.77168 30.4761 2.65649C32.2457 4.42556 32.2457 7.27982 30.4761 9.04943C30.006 9.51996 29.4513 9.83799 28.8674 10.0575L23.0742 4.26519C23.2936 3.68128 23.6113 3.12735 24.0822 2.65649C24.9673 1.77164 26.1238 1.3297 27.2797 1.3297ZM22.353 4.98636L23.0881 5.72148L19.8209 7.73358L18.6625 6.57513L22.353 4.98636ZM23.8133 6.44663L24.889 7.52241L22.2494 10.1621L20.562 8.47468L23.6947 6.54524C23.739 6.51857 23.779 6.48532 23.8133 6.44663ZM17.6534 7.00942L18.9284 8.28442L15.3734 10.4728L13.6382 8.73765L17.6534 7.00942ZM25.6102 8.24358L26.685 9.31837C26.6463 9.35266 26.6131 9.39262 26.5864 9.4369L24.6569 12.5696L22.9706 10.8832L25.6102 8.24358ZM19.6695 9.02552L21.5282 10.8832L18.6565 13.755L16.1154 11.2139L19.6695 9.02552ZM12.6301 9.17194L14.4809 11.0227L12.7686 12.0775C12.7111 12.1125 12.6612 12.1584 12.6215 12.2127C12.5819 12.267 12.5534 12.3286 12.5377 12.394C12.522 12.4593 12.5193 12.5271 12.5299 12.5935C12.5404 12.6599 12.564 12.7236 12.5993 12.7808C12.6345 12.838 12.6807 12.8877 12.7353 12.9271C12.7898 12.9664 12.8516 12.9945 12.917 13.0099C12.9824 13.0253 13.0503 13.0275 13.1166 13.0166C13.1829 13.0057 13.2464 12.9817 13.3035 12.9461L15.2219 11.7638L17.9343 14.4771L16.1513 16.2601C16.1024 16.3071 16.0633 16.3634 16.0364 16.4257C16.0094 16.488 15.9952 16.555 15.9945 16.6229C15.9938 16.6907 16.0067 16.758 16.0323 16.8209C16.058 16.8837 16.0959 16.9407 16.1439 16.9887C16.1919 17.0367 16.2489 17.0746 16.3118 17.1003C16.3746 17.1259 16.4419 17.1388 16.5097 17.1381C16.5776 17.1374 16.6446 17.1232 16.7069 17.0963C16.7692 17.0693 16.8255 17.0303 16.8725 16.9813L18.6555 15.1983L21.3678 17.9097L20.2482 19.7276C20.2127 19.7846 20.1887 19.8481 20.1778 19.9144C20.1669 19.9807 20.1691 20.0486 20.1845 20.114C20.1999 20.1795 20.228 20.2412 20.2673 20.2957C20.3067 20.3503 20.3564 20.3965 20.4136 20.4317C20.4708 20.467 20.5345 20.4905 20.6008 20.5011C20.6672 20.5117 20.7351 20.509 20.8004 20.4933C20.8658 20.4776 20.9274 20.4491 20.9817 20.4095C21.036 20.3698 21.0819 20.3199 21.1168 20.2625L22.1089 18.6518L23.9597 20.5025L19.0619 31.8799C16.93 31.747 15.3362 30.475 14.8982 30.0929L15.6792 28.8239L15.9142 28.7063L15.982 28.3258C16.0203 28.2456 16.0371 28.1568 16.0305 28.0682C16.024 27.9795 15.9944 27.8941 15.9446 27.8204C15.8949 27.7467 15.8268 27.6873 15.747 27.6481C15.6672 27.6088 15.5786 27.5911 15.4899 27.5967C15.4073 27.602 15.3272 27.6274 15.2565 27.6706C15.1859 27.7138 15.1269 27.7736 15.0845 27.8447L13.938 29.7064C13.9281 29.7222 13.9192 29.7385 13.9111 29.7552C10.7917 29.4675 8.90008 26.1508 8.4505 25.2698L9.71753 24.0028L9.96855 23.8773L9.99644 23.7239L10.0124 23.7079C10.0861 23.6363 10.1364 23.5441 10.1568 23.4433C10.1772 23.3426 10.1666 23.2381 10.1266 23.1434C10.0865 23.0488 10.0188 22.9684 9.93231 22.9129C9.84581 22.8574 9.74456 22.8293 9.64183 22.8324C9.50933 22.8363 9.38357 22.8917 9.2912 22.9868L7.62872 24.6493C7.62637 24.6519 7.62405 24.6545 7.62175 24.6572C7.19992 24.5302 6.44978 24.2546 5.66442 23.6741C4.53869 22.842 3.4281 21.4655 3.36146 19.0183L5.06378 17.9704C5.1596 17.9134 5.23408 17.8265 5.27581 17.7231C5.31754 17.6197 5.32423 17.5054 5.29485 17.3978C5.26546 17.2902 5.20163 17.1953 5.11313 17.1274C5.02462 17.0596 4.91632 17.0226 4.8048 17.0222C4.70709 17.0217 4.61132 17.0494 4.52888 17.1018L2.91819 18.094C2.40547 17.4538 1.36887 15.9424 1.25272 14.0707L12.6301 9.17194ZM27.4111 10.0445L28.1463 10.7796L26.5575 14.4712L25.398 13.3117L27.4111 10.0445ZM22.2494 11.6044L24.1071 13.4631L21.9177 17.0162L19.3776 14.4761L22.2494 11.6044ZM11.7446 12.7469L11.3362 12.9511L11.2555 13.4014L11.5673 13.7351L11.7446 13.7669L12.153 13.5617L12.2337 13.1115L11.9209 12.7778L11.7446 12.7469ZM10.0074 13.8167L9.599 14.0209L9.51831 14.4712L9.83009 14.8049L10.0074 14.8367L10.4158 14.6315L10.4965 14.1813L10.1847 13.8476L10.0074 13.8167ZM24.8482 14.2042L26.1232 15.4792L24.395 19.4935L22.6598 17.7583L24.8482 14.2042ZM8.27021 14.8865L7.86181 15.0907L7.78112 15.541L8.0939 15.8747L8.27021 15.9065L8.6786 15.7013L8.75929 15.2521L8.44751 14.9174L8.27021 14.8865ZM6.53302 15.9563L6.12462 16.1605L6.04394 16.6108L6.35671 16.9445L6.53302 16.9763L6.94241 16.7711L7.0221 16.3219L6.71032 15.9872L6.53302 15.9563ZM15.3305 17.2921L14.9221 17.4963L14.8414 17.9465L15.1532 18.2802L15.3305 18.3121L15.7389 18.1069L15.8196 17.6577L15.5068 17.323L15.3305 17.2921ZM13.8882 18.7344L13.4798 18.9386L13.3991 19.3889L13.7109 19.7226L13.8882 19.7544L14.2966 19.5492L14.3773 19.1L14.0645 18.7663L13.8882 18.7344ZM12.4458 20.1768L12.0364 20.381L11.9567 20.8312L12.2685 21.1649L12.4458 21.1968L12.8542 20.9916L12.9349 20.5424L12.6221 20.2087L12.4458 20.1768ZM19.7851 20.9428L19.3757 21.148L19.296 21.5972L19.6077 21.9309L19.7851 21.9628L20.1934 21.7586L20.2741 21.3084L19.9614 20.9747L19.7851 20.9428ZM11.0025 21.6191L10.5941 21.8243L10.5134 22.2736L10.8262 22.6073L11.0025 22.6391L11.4119 22.4349L11.4916 21.9847L11.1798 21.651L11.0025 21.6191ZM18.7152 22.68L18.3059 22.8852L18.2262 23.3344L18.5379 23.6681L18.7152 23.7L19.1236 23.4948L19.2043 23.0455L18.8916 22.7118L18.7152 22.68ZM17.6454 24.4172L17.236 24.6214L17.1564 25.0716L17.4681 25.4053L17.6454 25.4372L18.0538 25.232L18.1345 24.7827L17.8218 24.449L17.6454 24.4172ZM16.5756 26.1543L16.1662 26.3585L16.0866 26.8088L16.3983 27.1425L16.5756 27.1743L16.984 26.9692L17.0647 26.5189L16.7519 26.1852L16.5756 26.1543Z" fill="#0D7D0B"/>
</svg>
