<svg width="43" height="43" viewBox="0 0 43 43" fill="none" xmlns="http://www.w3.org/2000/svg">
<g filter="url(#filter0_b_115_1399)">
<rect width="42.4617" height="42.4617" rx="21.2308" fill="white" fill-opacity="0.2"/>
<mask id="mask0_115_1399" style="mask-type:alpha" maskUnits="userSpaceOnUse" x="11" y="13" width="20" height="17">
<path d="M21.9938 14.6404C23.8478 12.7274 26.8518 12.4178 28.8717 14.1392C31.1163 16.0549 31.2987 19.4472 29.4155 21.6037L29.2329 21.8022L22.1007 29.1666C21.6754 29.6055 21.0051 29.6393 20.5421 29.2679L20.431 29.1666L13.2987 21.8022C11.2273 19.6606 11.3489 16.1148 13.6636 14.1392C15.6162 12.4752 18.4918 12.7091 20.3527 14.4545L20.5416 14.6404L21.2677 15.3887L21.9938 14.6404ZM27.3416 15.9346C26.3811 15.116 24.891 15.1934 23.8476 16.1285L23.6867 16.2833L21.2677 18.776L18.846 16.2805C17.8051 15.2043 16.2047 15.0731 15.1951 15.9334C13.988 16.9637 13.8592 18.8164 14.8568 20.0093L14.9933 20.161L21.265 26.6364L27.5388 20.1606C28.637 19.0273 28.6048 17.1713 27.4928 16.0734L27.3416 15.9346Z" fill="white"/>
</mask>
<g mask="url(#mask0_115_1399)">
<path d="M21.9938 14.6404C23.8478 12.7274 26.8518 12.4178 28.8717 14.1392C31.1163 16.0549 31.2987 19.4472 29.4155 21.6037L29.2329 21.8022L22.1007 29.1666C21.6754 29.6055 21.0051 29.6393 20.5421 29.2679L20.431 29.1666L13.2987 21.8022C11.2273 19.6606 11.3489 16.1148 13.6636 14.1392C15.6162 12.4752 18.4918 12.7091 20.3527 14.4545L20.5416 14.6404L21.2677 15.3887L21.9938 14.6404ZM27.3416 15.9346C26.3811 15.116 24.891 15.1934 23.8476 16.1285L23.6867 16.2833L21.2677 18.776L18.846 16.2805C17.8051 15.2043 16.2047 15.0731 15.1951 15.9334C13.988 16.9637 13.8592 18.8164 14.8568 20.0093L14.9933 20.161L21.265 26.6364L27.5388 20.1606C28.637 19.0273 28.6048 17.1713 27.4928 16.0734L27.3416 15.9346Z" fill="white"/>
</g>
<rect x="0.530771" y="0.530771" width="41.4001" height="41.4001" rx="20.7001" stroke="white" stroke-opacity="0.3" stroke-width="1.06154"/>
</g>
<defs>
<filter id="filter0_b_115_1399" x="-10.6154" y="-10.6154" width="63.6925" height="63.6925" filterUnits="userSpaceOnUse" color-interpolation-filters="sRGB">
<feFlood flood-opacity="0" result="BackgroundImageFix"/>
<feGaussianBlur in="BackgroundImage" stdDeviation="5.30771"/>
<feComposite in2="SourceAlpha" operator="in" result="effect1_backgroundBlur_115_1399"/>
<feBlend mode="normal" in="SourceGraphic" in2="effect1_backgroundBlur_115_1399" result="shape"/>
</filter>
</defs>
</svg>
