<svg width="14" height="16" viewBox="0 0 14 16" fill="none" xmlns="http://www.w3.org/2000/svg">
<path d="M11.4999 1.98269C10.3065 0.78922 8.68777 0.118733 6.99995 0.118733C5.31212 0.118733 3.69342 0.78922 2.49995 1.98269C1.30647 3.17617 0.635986 4.79487 0.635986 6.48269C0.635986 8.17052 1.30647 9.78922 2.49995 10.9827L6.45245 14.9427C6.52217 15.013 6.60512 15.0688 6.69652 15.1069C6.78791 15.1449 6.88594 15.1645 6.98495 15.1645C7.08396 15.1645 7.18198 15.1449 7.27338 15.1069C7.36477 15.0688 7.44772 15.013 7.51745 14.9427L11.4999 10.9452C12.6884 9.75669 13.3561 8.14473 13.3561 6.46394C13.3561 4.78315 12.6884 3.1712 11.4999 1.98269ZM10.4274 9.87269L6.99995 13.3152L3.57245 9.87269C2.89531 9.19493 2.4343 8.33163 2.24772 7.39191C2.06113 6.4522 2.15734 5.47825 2.52418 4.5932C2.89101 3.70816 3.51201 2.95173 4.30867 2.41955C5.10533 1.88737 6.04189 1.60333 6.99995 1.60333C7.95801 1.60333 8.89456 1.88737 9.69122 2.41955C10.4879 2.95173 11.1089 3.70816 11.4757 4.5932C11.8426 5.47825 11.9388 6.4522 11.7522 7.39191C11.5656 8.33163 11.1046 9.19493 10.4274 9.87269ZM4.74995 4.18019C4.14448 4.78752 3.80449 5.61012 3.80449 6.46769C3.80449 7.32527 4.14448 8.14787 4.74995 8.75519C5.19977 9.20579 5.77264 9.5135 6.39668 9.63975C7.02073 9.76599 7.66816 9.70513 8.25775 9.46481C8.84734 9.22449 9.35283 8.8154 9.71081 8.28888C10.0688 7.76236 10.2633 7.14185 10.2699 6.50519C10.2733 6.0801 10.1914 5.65864 10.0291 5.26574C9.86681 4.87283 9.62737 4.51646 9.32495 4.21769C9.0277 3.91363 8.67326 3.67135 8.28201 3.50479C7.89077 3.33824 7.47045 3.2507 7.04525 3.24722C6.62004 3.24373 6.19835 3.32437 5.80443 3.48449C5.41051 3.6446 5.05214 3.88104 4.74995 4.18019ZM8.26745 7.69019C7.98323 7.97875 7.60761 8.15962 7.20479 8.20188C6.80198 8.24415 6.397 8.14517 6.05908 7.92189C5.72116 7.69861 5.4713 7.36488 5.3522 6.97776C5.23311 6.59064 5.25218 6.17417 5.40617 5.79956C5.56015 5.42495 5.83947 5.11546 6.19639 4.924C6.5533 4.73254 6.96564 4.671 7.3629 4.74991C7.76016 4.82881 8.11768 5.04326 8.37433 5.35659C8.63098 5.66992 8.77082 6.06267 8.76995 6.46769C8.75904 6.93065 8.56482 7.37034 8.22995 7.69019H8.26745Z" fill="black"/>
</svg>
