<svg width="35" height="36" viewBox="0 0 35 36" fill="none" xmlns="http://www.w3.org/2000/svg">
<g filter="url(#filter0_b_13_8883)">
<rect x="0.719604" y="0.859802" width="34.2804" height="34.2804" rx="17.1402" fill="#CDCDCD" fill-opacity="0.5"/>
<path d="M19.609 17.1992C19.8443 16.8753 19.9854 16.4927 20.0168 16.0936C20.0482 15.6946 19.9686 15.2946 19.7869 14.9379C19.6051 14.5813 19.3283 14.2818 18.987 14.0727C18.6457 13.8635 18.2532 13.7528 17.8529 13.7528C17.4526 13.7528 17.0601 13.8635 16.7188 14.0727C16.3774 14.2818 16.1006 14.5813 15.9189 14.9379C15.7371 15.2946 15.6575 15.6946 15.6889 16.0936C15.7203 16.4927 15.8614 16.8753 16.0967 17.1992C15.7983 17.3894 15.5326 17.6266 15.3099 17.9016C15.2518 17.9768 15.2091 18.0627 15.1842 18.1544C15.1592 18.2461 15.1526 18.3418 15.1647 18.4361C15.1768 18.5303 15.2073 18.6213 15.2545 18.7038C15.3017 18.7862 15.3647 18.8586 15.4399 18.9167C15.5151 18.9748 15.601 19.0176 15.6927 19.0425C15.7844 19.0674 15.8801 19.074 15.9743 19.0619C16.0686 19.0499 16.1596 19.0194 16.242 18.9721C16.3245 18.9249 16.3968 18.8619 16.455 18.7867C16.6265 18.5687 16.8452 18.3922 17.0945 18.2706C17.3439 18.1489 17.6176 18.0852 17.895 18.0843C18.1725 18.0852 18.4461 18.1489 18.6955 18.2706C18.9449 18.3922 19.1635 18.5687 19.3351 18.7867C19.4012 18.8682 19.4847 18.9339 19.5795 18.9789C19.6744 19.0238 19.7781 19.047 19.883 19.0467C20.0147 19.046 20.1436 19.0084 20.2549 18.9381C20.3662 18.8678 20.4556 18.7676 20.5127 18.6489C20.5698 18.5303 20.5925 18.398 20.578 18.2671C20.5635 18.1362 20.5126 18.012 20.4309 17.9087C20.1983 17.6281 19.9205 17.3884 19.609 17.1992ZM17.8599 16.6864C17.7097 16.6863 17.5628 16.642 17.4376 16.559C17.3123 16.4761 17.2143 16.3581 17.1556 16.2198C17.0969 16.0815 17.0802 15.929 17.1075 15.7813C17.1349 15.6336 17.205 15.4972 17.3093 15.3891C17.4136 15.281 17.5474 15.2059 17.694 15.1733C17.8407 15.1406 17.9937 15.1519 18.134 15.2055C18.2743 15.2592 18.3957 15.3529 18.4831 15.4751C18.5705 15.5973 18.6201 15.7425 18.6256 15.8926C18.6294 15.9955 18.6124 16.0981 18.5756 16.1942C18.5388 16.2904 18.483 16.3782 18.4115 16.4523C18.34 16.5264 18.2543 16.5853 18.1596 16.6255C18.0648 16.6657 17.9629 16.6864 17.8599 16.6864ZM23.8028 16.3351C23.7041 15.3088 23.3414 14.3254 22.7499 13.4809C22.1584 12.6363 21.3583 11.9593 20.4274 11.5159C19.4966 11.0724 18.4667 10.8775 17.4382 10.9502C16.4097 11.0229 15.4175 11.3607 14.5583 11.9307C13.8202 12.4242 13.2005 13.0752 12.7438 13.8367C12.2871 14.5983 12.0048 15.4515 11.917 16.3351C11.831 17.213 11.9414 18.099 12.2403 18.9288C12.5392 19.7587 13.0191 20.5116 13.6451 21.133L17.3682 24.8631C17.4335 24.9289 17.5112 24.9812 17.5968 25.0168C17.6824 25.0525 17.7742 25.0709 17.8669 25.0709C17.9597 25.0709 18.0515 25.0525 18.1371 25.0168C18.2227 24.9812 18.3004 24.9289 18.3657 24.8631L22.0747 21.133C22.7007 20.5116 23.1806 19.7587 23.4795 18.9288C23.7784 18.099 23.8888 17.213 23.8028 16.3351ZM21.0912 20.1425L17.8599 23.3738L14.6286 20.1425C14.1523 19.6663 13.7876 19.0904 13.5604 18.4564C13.3333 17.8224 13.2495 17.1459 13.3149 16.4756C13.3808 15.795 13.5972 15.1375 13.9483 14.5508C14.2994 13.964 14.7765 13.4625 15.3451 13.0827C16.0903 12.5876 16.9652 12.3235 17.8599 12.3235C18.7546 12.3235 19.6295 12.5876 20.3747 13.0827C20.9416 13.4611 21.4177 13.9603 21.7687 14.5445C22.1197 15.1287 22.337 15.7834 22.4049 16.4616C22.4725 17.1341 22.3897 17.8133 22.1625 18.4499C21.9353 19.0866 21.5694 19.6647 21.0912 20.1425Z" fill="#404040"/>
<rect x="1.4946" y="1.6348" width="32.7304" height="32.7304" rx="16.3652" stroke="#6A6565" stroke-opacity="0.3" stroke-width="1.55"/>
</g>
<defs>
<filter id="filter0_b_13_8883" x="-7.99098" y="-7.85078" width="51.7016" height="51.7015" filterUnits="userSpaceOnUse" color-interpolation-filters="sRGB">
<feFlood flood-opacity="0" result="BackgroundImageFix"/>
<feGaussianBlur in="BackgroundImage" stdDeviation="4.35529"/>
<feComposite in2="SourceAlpha" operator="in" result="effect1_backgroundBlur_13_8883"/>
<feBlend mode="normal" in="SourceGraphic" in2="effect1_backgroundBlur_13_8883" result="shape"/>
</filter>
</defs>
</svg>
