<svg width="51" height="51" viewBox="0 0 51 51" fill="none" xmlns="http://www.w3.org/2000/svg">
<rect width="51" height="51" fill="#4C59E6"/>
<path d="M23.205 13.77C22.8595 13.77 22.5603 13.9029 22.2697 14.0389C22.1882 14.0378 22.1076 14.0563 22.0346 14.0927L13.015 18.5931C12.9259 18.6376 12.8518 18.7072 12.8018 18.7933C12.183 19.2031 11.73 19.8577 11.73 20.655C11.73 21.9165 12.7636 22.95 14.025 22.95C14.3326 22.95 14.5977 22.8391 14.8588 22.7309C14.9418 22.7348 15.0246 22.7184 15.0998 22.6831L22.6911 19.0692L24.2041 22.5864L13.4752 30.1836C13.4205 30.2224 13.374 30.2715 13.3382 30.3282C13.3025 30.3849 13.2783 30.448 13.267 30.5141C13.2557 30.5801 13.2576 30.6478 13.2724 30.7131C13.2873 30.7785 13.3148 30.8402 13.3536 30.8949C13.3923 30.9496 13.4414 30.9961 13.4981 31.0318C13.5548 31.0675 13.618 31.0917 13.6841 31.103C13.7501 31.1143 13.8177 31.1124 13.8831 31.0976C13.9484 31.0827 14.0102 31.0551 14.0649 31.0164L25.1305 23.1801C25.2257 23.1125 25.2948 23.0144 25.3264 22.902C25.3579 22.7896 25.35 22.6698 25.3038 22.5625L23.4182 18.1797C23.3911 18.1167 23.3515 18.0599 23.302 18.0125C23.2524 17.9652 23.1937 17.9283 23.1296 17.9042C23.0654 17.88 22.9971 17.869 22.9286 17.8718C22.8601 17.8747 22.7928 17.8913 22.7309 17.9207L15.1008 21.5525L15.3259 21.9748C15.2942 21.9153 15.2509 21.8626 15.1987 21.8199C15.1464 21.7772 15.0862 21.7453 15.0216 21.7261C14.9569 21.7068 14.889 21.7005 14.8219 21.7077C14.7548 21.7148 14.6898 21.7352 14.6307 21.7676C14.441 21.8716 14.2406 21.93 14.025 21.93C13.3148 21.93 12.75 21.3652 12.75 20.655C12.75 20.1486 13.0441 19.722 13.4702 19.5135C13.496 19.5006 13.5207 19.4857 13.5439 19.4687L22.3125 15.0938L22.1293 15.041C22.1975 15.0605 22.2691 15.0655 22.3394 15.0557C22.4098 15.046 22.4773 15.0216 22.5377 14.9842C22.7375 14.8606 22.9615 14.79 23.205 14.79C23.6851 14.79 24.0915 15.0545 24.3117 15.4474C24.3775 15.5649 24.4871 15.6515 24.6165 15.6885L24.4372 15.6377L30.6 25.6444V28.56C30.5991 28.6276 30.6116 28.6947 30.6368 28.7574C30.662 28.8201 30.6994 28.8772 30.7468 28.9253C30.7943 28.9734 30.8508 29.0117 30.9132 29.0378C30.9755 29.0638 31.0424 29.0773 31.11 29.0773C31.1776 29.0773 31.2445 29.0638 31.3069 29.0378C31.3692 29.0117 31.4258 28.9734 31.4732 28.9253C31.5207 28.8772 31.5581 28.8201 31.5833 28.7574C31.6085 28.6947 31.621 28.6276 31.62 28.56V25.5C31.62 25.4057 31.5938 25.3133 31.5443 25.2331L25.2022 14.9344C25.1564 14.86 25.0923 14.7986 25.0159 14.7561C24.6007 14.1841 23.9668 13.77 23.205 13.77ZM36.465 18.36C34.3578 18.36 32.64 20.0776 32.64 22.183C32.64 24.2915 34.3579 26.01 36.465 26.01C38.5705 26.01 40.29 24.2919 40.29 22.183C40.29 20.0772 38.5706 18.36 36.465 18.36ZM36.465 19.38C38.0193 19.38 39.27 20.6291 39.27 22.183C39.27 23.7411 38.0194 24.99 36.465 24.99C34.9084 24.99 33.66 23.7414 33.66 22.183C33.66 20.6287 34.9085 19.38 36.465 19.38ZM7.7357 29.2742L7.38806 29.57L7.41695 30.0263L7.53349 30.1637L7.57333 30.1956L8.01859 30.2972L8.36623 30.0004L8.33734 29.5441L8.2208 29.4077L8.18095 29.3758L7.7357 29.2742ZM33.7477 30.092L33.3343 30.2862L33.2417 30.7335L33.5445 31.0751L33.7208 31.112L33.7716 31.113L34.185 30.9198L34.2776 30.4725L33.9748 30.1299L33.7985 30.094L33.7477 30.092ZM35.8833 30.2444L35.452 30.3958L35.3145 30.8321L35.5825 31.2026L35.7538 31.2564L35.8046 31.2624L36.2359 31.111L36.3724 30.6747L36.1054 30.3042L35.9331 30.2504L35.8833 30.2444ZM31.7924 30.2593L31.6121 30.2603L31.5623 30.2693L31.1967 30.5432V31.0004L31.5633 31.2734L31.7436 31.2724L31.7934 31.2634L32.1589 30.9895V30.5323L31.7924 30.2593ZM9.35634 30.5313L9.04955 30.8699L9.1382 31.3182L9.27167 31.4387L9.31451 31.4656L9.76972 31.5084L10.0755 31.1688L9.98787 30.7205L9.85439 30.6L9.81056 30.5731L9.35634 30.5313ZM37.997 30.6518L37.5498 30.7484L37.3605 31.1648L37.5797 31.5652L37.743 31.6399L37.7928 31.6529L38.2391 31.5553L38.4293 31.1399L38.2092 30.7395L38.0458 30.6648L37.997 30.6518ZM29.7055 30.7315L29.5262 30.7514L29.4774 30.7654L29.1428 31.0761L29.1916 31.5304L29.584 31.7634L29.7633 31.7445L29.8121 31.7306L30.1468 31.4188L30.098 30.9646L29.7055 30.7315ZM40.044 31.2963L39.5898 31.3421L39.3547 31.7346L39.528 32.1569L39.6824 32.2495L39.7302 32.2675L40.1845 32.2206L40.4195 31.8292L40.2462 31.4058L40.0918 31.3142L40.044 31.2963ZM27.6954 31.3949L27.5181 31.4238L27.4693 31.4407L27.1526 31.7694L27.2253 32.2197L27.6307 32.4318L27.808 32.4029L27.8558 32.386L28.1736 32.0573L28.1008 31.6061L27.6954 31.3949ZM11.5786 31.5433L11.1224 31.5662L10.8674 31.9457L11.0198 32.377L11.1692 32.4776L11.2161 32.4976L11.6723 32.4737L11.9263 32.0941L11.7749 31.6628L11.6254 31.5632L11.5786 31.5433ZM25.7232 32.0643L25.5459 32.0892L25.497 32.1051L25.1733 32.4278L25.2391 32.8811L25.6395 33.0992L25.8178 33.0733L25.8666 33.0574L26.1893 32.7346L26.1246 32.2824L25.7232 32.0643ZM41.5481 32.1599L41.2732 32.5255L41.4007 32.9637L41.5441 33.0723L41.5899 33.0952L42.0462 33.0972L42.3221 32.7316L42.1936 32.2934L42.0501 32.1848L42.0053 32.1619L41.5481 32.1599ZM13.4682 32.2894L13.018 32.3641L12.8078 32.7705L13.008 33.1809L13.1674 33.2636L13.2162 33.2785L13.6664 33.2038L13.8766 32.7974L13.6764 32.386L13.517 32.3043L13.4682 32.2894ZM23.7519 32.6231L23.5716 32.634L23.5228 32.646L23.1732 32.9398L23.2001 33.396L23.5816 33.6481L23.7609 33.6381L23.8107 33.6261L24.1593 33.3313L24.1334 32.8751L23.7519 32.6231ZM15.4255 32.8064L14.9883 32.9378L14.8319 33.3672L15.0819 33.7497L15.2502 33.8114L15.301 33.8204L15.7383 33.6889L15.8957 33.2596L15.6447 32.8771L15.4763 32.8153L15.4255 32.8064ZM21.5635 32.9837L21.5127 32.9906L21.1361 33.2486L21.1172 33.7048L21.4708 33.9937L21.6511 34.0007L21.7009 33.9937L22.0785 33.7357L22.0974 33.2795L21.7428 32.9906L21.5635 32.9837ZM17.4616 33.0892L17.0342 33.2506L16.9067 33.6889L17.1817 34.0545L17.355 34.1043L17.4058 34.1092L17.8331 33.9489L17.9606 33.5096L17.6847 33.145L17.5124 33.0952L17.4616 33.0892ZM19.5344 33.1321L19.4836 33.1331L19.0802 33.3492L19.0125 33.8005L19.3332 34.1262L19.5105 34.1531L19.5623 34.1521L19.9647 33.9359L20.0335 33.4847L19.7127 33.159L19.5344 33.1321Z" fill="white"/>
</svg>
