<svg width="36" height="21" viewBox="0 0 36 21" fill="none" xmlns="http://www.w3.org/2000/svg">
<path d="M16.205 0.392685C15.8595 0.392685 15.5603 0.525536 15.2697 0.66163C15.1882 0.660511 15.1076 0.678957 15.0346 0.715419L6.015 5.21577C5.92592 5.26027 5.85182 5.32987 5.80183 5.41599C5.18296 5.82575 4.73003 6.48036 4.73003 7.27769C4.73003 8.53914 5.76358 9.57269 7.02503 9.57269C7.33264 9.57269 7.59772 9.46174 7.85877 9.35355C7.94181 9.35749 8.02457 9.34108 8.09982 9.30573L15.6911 5.6919L17.2041 9.20911L6.47519 16.8063C6.42049 16.845 6.37396 16.8941 6.33824 16.9508C6.30253 17.0075 6.27833 17.0707 6.26704 17.1368C6.25574 17.2028 6.25757 17.2704 6.27241 17.3358C6.28726 17.4011 6.31483 17.4629 6.35356 17.5176C6.39229 17.5723 6.44141 17.6188 6.49811 17.6545C6.55482 17.6902 6.61801 17.7144 6.68406 17.7257C6.75012 17.737 6.81775 17.7351 6.88309 17.7202C6.94843 17.7054 7.0102 17.6778 7.06488 17.6391L18.1305 9.80278C18.2257 9.73522 18.2948 9.63705 18.3264 9.52465C18.3579 9.41225 18.35 9.29244 18.3038 9.18521L16.4182 4.80239C16.3911 4.73942 16.3515 4.68256 16.302 4.63522C16.2524 4.58787 16.1937 4.55101 16.1296 4.52683C16.0654 4.50266 15.9971 4.49167 15.9286 4.49451C15.8601 4.49736 15.7928 4.51399 15.7309 4.54341L8.10082 8.17517L8.32593 8.59751C8.29418 8.53797 8.25092 8.48533 8.19867 8.44262C8.14643 8.39992 8.08623 8.36801 8.02156 8.34874C7.95689 8.32947 7.88904 8.32322 7.82194 8.33036C7.75484 8.3375 7.68983 8.35788 7.63066 8.39032C7.44096 8.49432 7.24061 8.55269 7.02503 8.55269C6.31483 8.55269 5.75003 7.98789 5.75003 7.27769C5.75003 6.77124 6.04409 6.34464 6.47021 6.13616C6.496 6.12333 6.52066 6.10833 6.54392 6.09134L15.3125 1.71649L15.1293 1.6637C15.1975 1.68318 15.2691 1.6882 15.3394 1.67842C15.4098 1.66864 15.4773 1.64429 15.5377 1.60692C15.7375 1.48325 15.9615 1.41269 16.205 1.41269C16.6851 1.41269 17.0915 1.67713 17.3117 2.07011C17.3775 2.18753 17.4871 2.27418 17.6165 2.31116L17.4372 2.26036L23.6 12.2671V15.1827C23.5991 15.2503 23.6116 15.3174 23.6368 15.3801C23.662 15.4428 23.6994 15.4999 23.7468 15.548C23.7943 15.5961 23.8508 15.6343 23.9132 15.6604C23.9755 15.6865 24.0424 15.7 24.11 15.7C24.1776 15.7 24.2445 15.6865 24.3069 15.6604C24.3692 15.6343 24.4258 15.5961 24.4732 15.548C24.5207 15.4999 24.5581 15.4428 24.5833 15.3801C24.6085 15.3174 24.621 15.2503 24.62 15.1827V12.1227C24.62 12.0284 24.5938 11.936 24.5443 11.8557L18.2022 1.55712C18.1564 1.48271 18.0923 1.42132 18.0159 1.37882C17.6007 0.806809 16.9668 0.392685 16.205 0.392685ZM29.465 4.98269C27.3578 4.98269 25.64 6.70025 25.64 8.80569C25.64 10.9142 27.3579 12.6327 29.465 12.6327C31.5705 12.6327 33.29 10.9145 33.29 8.80569C33.29 6.69987 31.5706 4.98269 29.465 4.98269ZM29.465 6.00269C31.0193 6.00269 32.27 7.25176 32.27 8.80569C32.27 10.3637 31.0194 11.6127 29.465 11.6127C27.9084 11.6127 26.66 10.3641 26.66 8.80569C26.66 7.25138 27.9085 6.00269 29.465 6.00269ZM0.735698 15.8969L0.388062 16.1927L0.416948 16.6489L0.533491 16.7864L0.573335 16.8183L1.01859 16.9199L1.36623 16.623L1.33734 16.1668L1.2208 16.0304L1.18095 15.9985L0.735698 15.8969ZM26.7477 16.7147L26.3343 16.9089L26.2417 17.3562L26.5445 17.6978L26.7208 17.7347L26.7716 17.7357L27.185 17.5424L27.2776 17.0952L26.9748 16.7525L26.7985 16.7167L26.7477 16.7147ZM28.8833 16.8671L28.452 17.0185L28.3145 17.4548L28.5825 17.8253L28.7538 17.8791L28.8046 17.8851L29.2359 17.7337L29.3724 17.2974L29.1054 16.9268L28.9331 16.8731L28.8833 16.8671ZM24.7924 16.882L24.6121 16.883L24.5623 16.892L24.1967 17.1659V17.6231L24.5633 17.896L24.7436 17.8951L24.7934 17.8861L25.1589 17.6122V17.155L24.7924 16.882ZM2.35634 17.154L2.04955 17.4926L2.1382 17.9409L2.27167 18.0614L2.31451 18.0883L2.76972 18.1311L3.07552 17.7915L2.98787 17.3432L2.85439 17.2227L2.81056 17.1958L2.35634 17.154ZM30.997 17.2745L30.5498 17.3711L30.3605 17.7875L30.5797 18.1879L30.743 18.2626L30.7928 18.2756L31.2391 18.1779L31.4293 17.7626L31.2092 17.3621L31.0458 17.2874L30.997 17.2745ZM22.7055 17.3542L22.5262 17.3741L22.4774 17.388L22.1428 17.6988L22.1916 18.153L22.584 18.3861L22.7633 18.3672L22.8121 18.3533L23.1468 18.0415L23.098 17.5873L22.7055 17.3542ZM33.044 17.919L32.5898 17.9648L32.3547 18.3572L32.528 18.7796L32.6824 18.8722L32.7302 18.8901L33.1845 18.8433L33.4195 18.4519L33.2462 18.0285L33.0918 17.9369L33.044 17.919ZM20.6954 18.0176L20.5181 18.0465L20.4693 18.0634L20.1526 18.3921L20.2253 18.8423L20.6307 19.0545L20.808 19.0256L20.8558 19.0087L21.1736 18.68L21.1008 18.2287L20.6954 18.0176ZM4.57863 18.166L4.12242 18.1889L3.86742 18.5684L4.01982 18.9997L4.16923 19.1003L4.21605 19.1202L4.67226 19.0963L4.92627 18.7168L4.77486 18.2855L4.62544 18.1859L4.57863 18.166ZM18.7232 18.6869L18.5459 18.7118L18.497 18.7278L18.1733 19.0505L18.2391 19.5037L18.6395 19.7219L18.8178 19.696L18.8666 19.68L19.1893 19.3573L19.1246 18.9051L18.7232 18.6869ZM34.5481 18.7826L34.2732 19.1481L34.4007 19.5864L34.5441 19.695L34.5899 19.7179L35.0462 19.7199L35.3221 19.3543L35.1936 18.916L35.0501 18.8075L35.0053 18.7846L34.5481 18.7826ZM6.46822 18.9121L6.01798 18.9868L5.80781 19.3932L6.00802 19.8036L6.1674 19.8862L6.21621 19.9012L6.66644 19.8265L6.87662 19.4201L6.6764 19.0087L6.51703 18.927L6.46822 18.9121ZM16.7519 19.2458L16.5716 19.2567L16.5228 19.2687L16.1732 19.5625L16.2001 20.0187L16.5816 20.2707L16.7609 20.2608L16.8107 20.2488L17.1593 19.954L17.1334 19.4978L16.7519 19.2458ZM8.42554 19.429L7.98826 19.5605L7.83187 19.9898L8.08189 20.3723L8.25023 20.4341L8.30103 20.4431L8.73832 20.3116L8.8957 19.8823L8.64468 19.4998L8.47634 19.438L8.42554 19.429ZM14.5635 19.6063L14.5127 19.6133L14.1361 19.8713L14.1172 20.3275L14.4708 20.6164L14.6511 20.6234L14.7009 20.6164L15.0785 20.3584L15.0974 19.9022L14.7428 19.6133L14.5635 19.6063ZM10.4616 19.7119L10.0342 19.8733L9.90673 20.3116L10.1817 20.6771L10.355 20.7269L10.4058 20.7319L10.8331 20.5716L10.9606 20.1323L10.6847 19.7677L10.5124 19.7179L10.4616 19.7119ZM12.5344 19.7548L12.4836 19.7558L12.0802 19.9719L12.0125 20.4231L12.3332 20.7489L12.5105 20.7758L12.5623 20.7748L12.9647 20.5586L13.0335 20.1074L12.7127 19.7817L12.5344 19.7548Z" fill="#4C59E6"/>
</svg>
